<svg xmlns="http://www.w3.org/2000/svg" viewBox="0 0 447.29 213.849"><defs><style>.cls-1{isolation:isolate;}.cls-2{fill:#7a603f;mix-blend-mode:color-burn;}.cls-3{fill:#987553;}.cls-4{fill:none;stroke:#fff;stroke-linecap:round;stroke-linejoin:round;stroke-width:9px;}.cls-5{fill:#d27b2b;}.cls-6{fill:#fff;}</style></defs><title>Ativo 5</title><g class="cls-1"><g id="Camada_2" data-name="Camada 2"><g id="telefone"><g id="_Grupo_" data-name="&lt;Grupo&gt;"><path id="_Caminho_" data-name="&lt;Caminho&gt;" class="cls-2" d="M31.816,115.4C24.574,106.392,11.735,76.44,91.36,38.982c2.972-1.4,19.464-16.215,10.684-26.167-.516-.585,33.155,14.327,41.334,50.074,2.383.753,39.446,26,21.7,53,19.083-2.584,83.64,93.352-76.439,93.457C53.115,209.372-41.926,176.392,31.816,115.4Z"/><path id="_Caminho_2" data-name="&lt;Caminho&gt;" class="cls-3" d="M165.074,115.892c17.75-27-19.313-52.25-21.7-53-5.355-23.4-26.856-39.857-37.317-46.9,5.7,9.425-1.1,27.1,6,42.132,15.894,33.647-24.848,47.686-23.741,87.05,1.076,38.3,39.971,44.446,40.738,61.622C236.629,191.584,182.309,113.558,165.074,115.892Z"/><g id="_Grupo_2" data-name="&lt;Grupo&gt;"><path id="_Caminho_3" data-name="&lt;Caminho&gt;" class="cls-4" d="M31.816,115.4C24.574,106.392,11.735,76.44,91.36,38.982c2.972-1.4,19.464-16.215,10.684-26.167-.516-.585,33.155,14.327,41.334,50.074,2.383.753,39.446,26,21.7,53,19.083-2.584,83.64,93.352-76.439,93.457C53.115,209.372-41.926,176.392,31.816,115.4Z"/></g></g><g id="_Grupo_3" data-name="&lt;Grupo&gt;"><g id="_Grupo_4" data-name="&lt;Grupo&gt;"><path id="_Caminho_composto_" data-name="&lt;Caminho composto&gt;" class="cls-5" d="M235.739,115.447h4.271l15.619-.244a53.692,53.692,0,0,0,6.223-.61h1.831l6.955-.366c2.074-.122,4.027-.488,6.1-.61a24.954,24.954,0,0,1,4.271,0c1.709.122,3.417.244,5.126.488,1.83.122,3.783.244,5.734.488s2.686,1.22,2.442,3.3a56.429,56.429,0,0,1-1.831,9.03l-3.538,11.226a159.184,159.184,0,0,1-6.468,16.474c-2.563,5.613-5,11.348-7.444,17.084a5.134,5.134,0,0,0-.488,1.219c-.244,1.221.245,1.953,1.464,2.076h.976c2.807.121,5.614.243,8.421.487,1.586,0,3.05.122,4.515.244a2.8,2.8,0,0,1,2.806,2.563,31.179,31.179,0,0,1,.489,3.538c.243,3.052.487,6.1.487,9.153,0,2.074-.244,4.026-.366,6.1,0,2.074,0,4.271-.121,6.345v1.83a2.331,2.331,0,0,1-1.953,2.075l-4.271.366c-2.441.245-5,.366-7.444.488a15.068,15.068,0,0,1-5.735-.243,28.036,28.036,0,0,0-7.81-.489c-2.074.244-4.149.61-6.223.976-1.953.366-4.027.366-5.979.611a32.594,32.594,0,0,1-4.882,0c-2.684-.122-5.491-.122-8.3,0a69.225,69.225,0,0,0-7.078.61c-1.708.122-3.417.244-5.125.244-1.831,0-2.563-.976-1.831-2.685a23.545,23.545,0,0,1,1.465-3.051,76.528,76.528,0,0,0,4.88-10.737c2.319-5.126,4.15-10.5,6.1-15.62,1.708-4.271,3.661-8.542,5.613-12.691a79.925,79.925,0,0,1,7.2-12.569c1.464-2.2,2.806-4.392,4.149-6.589a2.552,2.552,0,0,0,.488-.732c.732-1.464.366-2.563-1.465-2.441a9.846,9.846,0,0,1-1.951.122,13.537,13.537,0,0,1-2.32.244,85,85,0,0,0-9.64.611,23.508,23.508,0,0,1-2.928.122l-7.2.488h-4.637a2.534,2.534,0,0,1-2.806-2.685c-.123-2.807-.366-5.491-.366-8.3,0-3.417.122-6.833.243-10.372a22.408,22.408,0,0,1,.855-5.613c.61-1.709,1.22-2.319,3.05-2.319a7.994,7.994,0,0,1,1.708,0Z"/><path id="_Caminho_4" data-name="&lt;Caminho&gt;" class="cls-6" d="M245.37,185.157c-3.306-.363-8.979,8.871-6.4,13.537,1.653,2.99,6.927,3.224,17.477,3.693,5.916.262,10.554,0,10.584-.493.04-.659-8.433.587-14.277-4.43C247.061,192.576,248.2,185.468,245.37,185.157Z"/></g><g id="_Grupo_5" data-name="&lt;Grupo&gt;"><path id="_Caminho_composto_2" data-name="&lt;Caminho composto&gt;" class="cls-5" d="M246.3,74.045a31.022,31.022,0,0,0,.665,6.663l.572,2.761a3.916,3.916,0,0,0,3.141,2.76,2.426,2.426,0,0,0,2.57-1.237,7.826,7.826,0,0,0,.856-3.9c.1-1.428,0-2.951,0-4.379V75.568a1.9,1.9,0,0,1,1.809-2.189,19.017,19.017,0,0,1,3.237-.476,68.415,68.415,0,0,1,7.615-.666,4.743,4.743,0,0,1,1.142.19,1.836,1.836,0,0,1,1.619,1.332,8.117,8.117,0,0,1,.38,2.095c.095,2.665.191,5.235.191,7.9a16.7,16.7,0,0,1-1.524,7.711,19.378,19.378,0,0,1-10,10.376c-1.9.761-3.617,1.713-5.52,2.569a13.133,13.133,0,0,1-5.712,1.238,29.853,29.853,0,0,0-4.188.286,24.318,24.318,0,0,1-3.713-.191,29.254,29.254,0,0,1-8.947-2.57,14.14,14.14,0,0,1-7.52-9.424,23.816,23.816,0,0,1-.857-5.806l-.19-6.092c-.191-2.38-.381-4.76-.476-7.139-.095-1.238-.191-2.571-.191-3.9-.095-3.9-.19-7.8-.095-11.708a46.281,46.281,0,0,1,1.238-10.852,23.258,23.258,0,0,1,2.665-6.568c2.094-3.522,5.331-5.236,9.233-6,2.761-.476,5.617-.857,8.377-1.237a24.457,24.457,0,0,1,2.475-.286c1.047-.095,2,0,3.046-.19a12.861,12.861,0,0,1,5.711.476l3.236.856a14.017,14.017,0,0,1,7.426,4.665A18.418,18.418,0,0,1,268,52.342a4.907,4.907,0,0,1-.19,1.047c-.286.952-.952,1.238-1.9,1.428-2.094.286-4.093.667-6.187,1.047-.667.1-1.237.381-1.808.476a1.439,1.439,0,0,1-1.905-1.047l-.476-2.475a6.475,6.475,0,0,0-1.142-2.475,4,4,0,0,0-2.475-1.142,5.089,5.089,0,0,0-3.332.952,3.782,3.782,0,0,0-1.618,2.665,24.6,24.6,0,0,0-.38,3.712c-.191,4.284-.191,8.567-.285,12.851C246.3,70.9,246.4,72.522,246.3,74.045Z"/><path id="_Caminho_5" data-name="&lt;Caminho&gt;" class="cls-6" d="M236.5,40.317c-3.494.4-5.915,4.05-6.639,7.053-1.035,4.3,1.045,8.776,2.075,8.712.706-.044.438-2.193,2.282-5.808.922-1.809,2.113-4.144,4.563-5.6,1.988-1.182,3.43-.969,3.527-1.66C242.449,41.976,239.4,39.985,236.5,40.317Z"/></g><g id="_Grupo_6" data-name="&lt;Grupo&gt;"><path id="_Caminho_composto_3" data-name="&lt;Caminho composto&gt;" class="cls-5" d="M362.914,74.045a31.086,31.086,0,0,0,.666,6.663l.571,2.761a3.918,3.918,0,0,0,3.142,2.76,2.424,2.424,0,0,0,2.569-1.237,7.816,7.816,0,0,0,.857-3.9c.1-1.428,0-2.951,0-4.379V75.568a1.9,1.9,0,0,1,1.809-2.189,19.005,19.005,0,0,1,3.236-.476,68.454,68.454,0,0,1,7.616-.666,4.727,4.727,0,0,1,1.141.19,1.834,1.834,0,0,1,1.619,1.332,8.119,8.119,0,0,1,.381,2.095c.095,2.665.191,5.235.191,7.9a16.717,16.717,0,0,1-1.524,7.711,19.382,19.382,0,0,1-10,10.376c-1.9.761-3.617,1.713-5.521,2.569a13.129,13.129,0,0,1-5.711,1.238,29.832,29.832,0,0,0-4.188.286,24.318,24.318,0,0,1-3.713-.191,29.246,29.246,0,0,1-8.947-2.57,14.14,14.14,0,0,1-7.52-9.424,23.768,23.768,0,0,1-.857-5.806l-.19-6.092c-.191-2.38-.381-4.76-.477-7.139-.094-1.238-.19-2.571-.19-3.9-.1-3.9-.19-7.8-.1-11.708a46.228,46.228,0,0,1,1.238-10.852,23.258,23.258,0,0,1,2.665-6.568c2.094-3.522,5.33-5.236,9.233-6,2.761-.476,5.617-.857,8.377-1.237a24.457,24.457,0,0,1,2.475-.286c1.047-.095,2,0,3.046-.19a12.864,12.864,0,0,1,5.711.476l3.236.856a14.017,14.017,0,0,1,7.426,4.665,18.418,18.418,0,0,1,3.426,12.374,4.97,4.97,0,0,1-.19,1.047c-.286.952-.952,1.238-1.9,1.428-2.1.286-4.094.667-6.187,1.047-.667.1-1.238.381-1.809.476a1.438,1.438,0,0,1-1.9-1.047l-.476-2.475a6.5,6.5,0,0,0-1.142-2.475A4,4,0,0,0,368.53,49.2a5.087,5.087,0,0,0-3.332.952,3.778,3.778,0,0,0-1.618,2.665,24.6,24.6,0,0,0-.38,3.712c-.191,4.284-.191,8.567-.286,12.851C362.914,70.9,363.009,72.522,362.914,74.045Z"/><path id="_Caminho_6" data-name="&lt;Caminho&gt;" class="cls-6" d="M351.159,39.316c-3.493.4-5.914,4.05-6.638,7.052-1.035,4.3,1.045,8.777,2.075,8.713.706-.044.438-2.193,2.282-5.808a12.563,12.563,0,0,1,4.563-5.6c1.987-1.182,3.43-.97,3.527-1.66C357.113,40.975,354.067,38.984,351.159,39.316Z"/></g><g id="_Grupo_7" data-name="&lt;Grupo&gt;"><path id="_Caminho_composto_4" data-name="&lt;Caminho composto&gt;" class="cls-5" d="M424.409,106.315a70.034,70.034,0,0,1-11.9-1.143,26.378,26.378,0,0,1-10.947-5.14,19.451,19.451,0,0,1-6.187-8.662,29.2,29.2,0,0,1-1.713-8.091c-.191-2.19-.1-4.284-.191-6.474l-.38-4.759a52.642,52.642,0,0,1,.094-8.662,12.455,12.455,0,0,0,.1-2.665,33.3,33.3,0,0,1,2.76-13.231,40.065,40.065,0,0,1,3.046-5.617,15.45,15.45,0,0,1,3.142-2.951c1.237-.761,2.284-1.618,3.522-2.379a18.283,18.283,0,0,1,7.424-2.285c1.9-.19,3.9-.571,5.9-.857,2.571-.38,5.236-.666,7.9-.951a12.223,12.223,0,0,1,6.092,1.142,18.022,18.022,0,0,1,9.614,8.376,25.219,25.219,0,0,1,2.57,8.377c.571,3.522,1.142,6.949,1.523,10.471a31.583,31.583,0,0,1,.19,6l-.19,7.044c0,1.142.19,2.285.19,3.426,0,2.761.572,5.521.191,8.282a30.672,30.672,0,0,1-1.142,6.568,35.848,35.848,0,0,1-1.523,4.093,14.848,14.848,0,0,1-3.428,3.9,25.167,25.167,0,0,1-7.995,4.379,23.248,23.248,0,0,1-6.378,1.618Zm2.475-31.794c-.191-2.284-.381-4.569-.571-6.758-.191-2.38-.286-4.855-.667-7.235a15.891,15.891,0,0,0-2.665-7.139,6.179,6.179,0,0,0-2.76-2.189,4.442,4.442,0,0,0-1.619-.286,3.769,3.769,0,0,0-2.855,2.951,28.679,28.679,0,0,0-.191,4.95c.191,3.141.191,6.187.571,9.328a17.992,17.992,0,0,0,2.666,7.234,6.963,6.963,0,0,0,3.236,2.952,3.269,3.269,0,0,0,4.664-2.475Z"/><path id="_Caminho_7" data-name="&lt;Caminho&gt;" class="cls-6" d="M411.182,39.316c-3.493.4-5.914,4.05-6.638,7.052-1.035,4.3,1.045,8.777,2.075,8.713.706-.044.438-2.193,2.281-5.808.923-1.81,2.114-4.144,4.564-5.6,1.987-1.182,3.43-.97,3.527-1.66C417.136,40.975,414.09,38.984,411.182,39.316Z"/></g><g id="_Grupo_8" data-name="&lt;Grupo&gt;"><path id="_Caminho_composto_5" data-name="&lt;Caminho composto&gt;" class="cls-5" d="M378.884,193.544c0-8.42,0-16.962-.121-25.5l-.489-13.788c0-1.709.123-3.539.244-5.247V137.29c-.121-2.685-.366-5.247-.366-7.932a47.164,47.164,0,0,1,.245-9.274,4.356,4.356,0,0,1,.244-1.342c.487-2.075,1.464-2.684,3.538-3.051l8.176-1.464a38.93,38.93,0,0,1,9.152-.977c2.319-.121,4.515,0,6.834,0l12.324.245a46.106,46.106,0,0,1,8.176,1.586,29.444,29.444,0,0,1,11.592,6.1,3.291,3.291,0,0,1,.977.854c3.294,4.026,5.857,8.3,6.345,13.545.244,2.928.733,5.735.733,8.664a45.124,45.124,0,0,1-.855,6.955,36.313,36.313,0,0,1-1.708,7.2c-2.074,5.491-4.881,10.494-9.518,14.154-1.221.977-2.319,1.953-3.539,2.808A22.9,22.9,0,0,1,420.5,178.9c-1.953.244-3.783.244-5.613.367a18.179,18.179,0,0,0-2.563.121,2.216,2.216,0,0,0-2.2,2.319v.366l.61,9.273c0,1.1.122,2.319.122,3.54.123,3.294.244,6.711.244,10a23.272,23.272,0,0,1,0,2.929,2.408,2.408,0,0,1-2.44,2.2c-3.417.122-6.955.244-10.373.488a42.669,42.669,0,0,0-7.931.854c-1.83.366-3.661.366-5.492.61-.609,0-1.219.122-1.708.122-1.585,0-2.44-.488-2.684-2.074-.245-1.464-.488-2.929-.611-4.393-.366-2.807-.61-5.613-.853-8.42Zm30.752-47.834a1.643,1.643,0,0,0,1.586,1.708,7.392,7.392,0,0,0,2.319,0,12.457,12.457,0,0,0,4.636-1.22,3.1,3.1,0,0,0,.854-4.881,3.331,3.331,0,0,0-1.464-1.1c-1.952-1.221-4.271-1.343-6.589-1.343a1.22,1.22,0,0,0-1.342,1.343,20.513,20.513,0,0,0-.123,2.684C409.636,143.88,409.513,144.856,409.636,145.71Z"/><path id="_Caminho_8" data-name="&lt;Caminho&gt;" class="cls-6" d="M433.659,131.648c-.536-4.7-5.446-7.953-9.483-8.925-5.78-1.392-11.8,1.405-11.715,2.789.059.949,2.949.589,7.81,3.068,2.432,1.241,5.572,2.842,7.531,6.136,1.588,2.672,1.3,4.612,2.231,4.742C431.427,139.653,434.1,135.557,433.659,131.648Z"/></g><g id="_Grupo_9" data-name="&lt;Grupo&gt;"><path id="_Caminho_composto_6" data-name="&lt;Caminho composto&gt;" class="cls-5" d="M307.8,106.315a70.054,70.054,0,0,1-11.9-1.143,26.369,26.369,0,0,1-10.946-5.14,19.445,19.445,0,0,1-6.188-8.662,29.233,29.233,0,0,1-1.713-8.091c-.191-2.19-.1-4.284-.191-6.474l-.38-4.759a52.642,52.642,0,0,1,.1-8.662,12.454,12.454,0,0,0,.095-2.665,33.3,33.3,0,0,1,2.761-13.231,39.859,39.859,0,0,1,3.046-5.617,15.418,15.418,0,0,1,3.141-2.951c1.237-.761,2.284-1.618,3.522-2.379a18.292,18.292,0,0,1,7.425-2.285c1.9-.19,3.9-.571,5.9-.857,2.57-.38,5.235-.666,7.9-.951a12.223,12.223,0,0,1,6.092,1.142,18.028,18.028,0,0,1,9.615,8.376,25.241,25.241,0,0,1,2.569,8.377c.571,3.522,1.143,6.949,1.524,10.471a31.666,31.666,0,0,1,.19,6l-.19,7.044c0,1.142.19,2.285.19,3.426,0,2.761.571,5.521.19,8.282a30.61,30.61,0,0,1-1.142,6.568,35.474,35.474,0,0,1-1.523,4.093,14.863,14.863,0,0,1-3.427,3.9,25.183,25.183,0,0,1-8,4.379,23.248,23.248,0,0,1-6.378,1.618Zm2.475-31.794c-.191-2.284-.381-4.569-.571-6.758-.191-2.38-.286-4.855-.667-7.235a15.891,15.891,0,0,0-2.665-7.139,6.179,6.179,0,0,0-2.76-2.189,4.442,4.442,0,0,0-1.619-.286,3.769,3.769,0,0,0-2.855,2.951,28.678,28.678,0,0,0-.19,4.95c.19,3.141.19,6.187.57,9.328a17.992,17.992,0,0,0,2.666,7.234,6.963,6.963,0,0,0,3.236,2.952,3.269,3.269,0,0,0,4.664-2.475Z"/><path id="_Caminho_9" data-name="&lt;Caminho&gt;" class="cls-6" d="M294.106,38.319c-3.936.449-6.664,4.563-7.479,7.947-1.167,4.843,1.177,9.888,2.337,9.816.8-.05.494-2.471,2.571-6.544,1.04-2.039,2.381-4.669,5.142-6.311,2.239-1.331,3.865-1.092,3.973-1.87C300.814,40.189,297.382,37.946,294.106,38.319Z"/></g><g id="_Grupo_10" data-name="&lt;Grupo&gt;"><path id="_Caminho_composto_7" data-name="&lt;Caminho composto&gt;" class="cls-5" d="M303.834,185.857c.122-4.028.489-8.054.855-12.2a25.718,25.718,0,0,1,.121-3.05c.122-2.2.122-4.514.366-6.834.244-2.074.732-4.148.976-6.222.489-3.051.855-6.1,1.221-9.275.488-3.538.976-7.077,1.342-10.616.488-4.759,1.83-9.274,2.806-13.911a35.162,35.162,0,0,1,.855-3.416,3.116,3.116,0,0,1,2.807-2.441l6.467-.733c.244,0,.488-.121.732,0,3.173.611,6.346.245,9.641-.121a20.742,20.742,0,0,1,5.49.244,23.6,23.6,0,0,0,5.858.122c1.952,0,10.372-.366,12.446-.366,1.464-.122,2.075.366,2.563,1.83,1.953,6.467,4.027,12.935,5,19.646.366,2.807.61,5.614.855,8.42.366,3.539.609,7.078.853,10.617a13.9,13.9,0,0,1,.123,2.318l.243,6.833.489,5.98c.366,3.172.732,6.223.976,9.274.366,3.782.732,7.566.732,11.348.122,2.684.61,5.37.855,8.054a25.666,25.666,0,0,1,0,3.051,1.714,1.714,0,0,1-2.075,1.708,24.478,24.478,0,0,0-2.929-.488c-1.83,0-15.375.122-17.327.244-.489,0-1.1.122-1.587.122a1.947,1.947,0,0,1-2.2-1.586,12.046,12.046,0,0,1-.366-2.929c-.244-2.44-.244-4.881-.366-7.321-.244-2.929-.61-5.98-.976-9.031-.244-1.952-.854-2.684-2.806-2.684-.489,0-2.075.122-2.563.122-1.465,0-1.952.61-2.2,1.953a36.362,36.362,0,0,0-.732,4.88c-.488,3.173-.854,6.468-1.22,9.641-.122,1.342,0,2.806-.122,4.148-.122,1.708-.854,2.441-2.684,2.441h-4.637c-3.051-.122-6.1.488-9.152.732a12.771,12.771,0,0,1-3.052,0l-4.148-.732c-2.074-.244-2.807-1.342-3.05-3.173a72.468,72.468,0,0,1-.489-8.908C303.834,190.982,303.712,188.419,303.834,185.857Zm30.75-28.921v.732c.245,1.343.733,1.709,2.075,1.587l2.563-.61a1.607,1.607,0,0,0,1.342-1.953,20.256,20.256,0,0,0-.366-2.684l-1.83-9.274a3.491,3.491,0,0,0-.488-1.465,1.166,1.166,0,0,0-2.2.123,3.894,3.894,0,0,0-.366,1.708c-.366,3.905-.488,7.931-.854,11.836Z"/><path id="_Caminho_10" data-name="&lt;Caminho&gt;" class="cls-6" d="M324.127,124.7c-3.936.979-6.664,9.957-7.479,17.339-1.167,10.567,1.177,21.576,2.337,21.418.8-.108.494-5.392,2.571-14.279,1.04-4.447,2.381-10.187,5.142-13.769,2.239-2.9,3.865-2.382,3.973-4.079C330.835,128.78,327.4,123.886,324.127,124.7Z"/></g><g id="_Grupo_11" data-name="&lt;Grupo&gt;"><path id="_Caminho_11" data-name="&lt;Caminho&gt;" class="cls-5" d="M422.468,22.577c.08-1.3.16-2.591.279-3.866a2.593,2.593,0,0,1,.244-1.136.775.775,0,0,1,1.46-.081,2.309,2.309,0,0,1,.325.973l.811,4.11h16.627c-.073-.883-.145-1.766-.236-2.649-.163-1.866-.325-3.733-.568-5.6a90.643,90.643,0,0,0-3.327-13.063c-.324-.974-.731-1.3-1.7-1.218-1.38,0-6.978.244-8.276.244a15.679,15.679,0,0,1-3.895-.081,13.773,13.773,0,0,0-3.651-.163,21.229,21.229,0,0,1-6.41.081c-.163-.081-.325,0-.487,0l-4.3.487a2.075,2.075,0,0,0-1.866,1.623c-.243.73-.4,1.542-.568,2.272a89.03,89.03,0,0,0-1.866,9.25c-.244,2.353-.568,4.706-.893,7.059-.068.595-.141,1.173-.211,1.757Z"/><path id="_Caminho_12" data-name="&lt;Caminho&gt;" class="cls-6" d="M416.072,4.244c-3.494.4-5.915,4.051-6.638,7.053-1.035,4.3,1.045,8.777,2.074,8.713.706-.044.439-2.194,2.282-5.809.923-1.809,2.114-4.144,4.564-5.6,1.987-1.182,3.43-.97,3.526-1.66C422.025,5.9,418.979,3.913,416.072,4.244Z"/></g></g><path id="_Caminho_13" data-name="&lt;Caminho&gt;" class="cls-6" d="M133.676,176.651a50.609,50.609,0,0,1-19.191-4.356,112.3,112.3,0,0,1-53.827-47.222,46.172,46.172,0,0,1-6.248-17.422,28.633,28.633,0,0,1,7.66-24.118c4.189-4.587,9.664-5.089,15.318-4a5.566,5.566,0,0,1,3.262,2.976c3.025,6.715,5.8,13.544,8.664,20.331,1.2,2.836.432,5.334-1.374,7.6s-3.685,4.517-5.575,6.735a3.483,3.483,0,0,0-.3,4.716,78.129,78.129,0,0,0,34,29.678c2.637,1.195,4.587.86,6.344-1.466q3.336-4.416,6.9-8.659c2.028-2.414,4.469-3.161,7.515-1.7,5.33,2.555,10.846,4.743,16.072,7.489,5.744,3.019,7.172,7.117,5.525,13.537-1.1,4.278-3.779,7.385-7.126,10.012A28.172,28.172,0,0,1,133.676,176.651Z"/></g></g></g></svg>